<?xml version="1.0" encoding="utf-8"?>
<!-- Generator: Adobe Illustrator 16.0.0, SVG Export Plug-In . SVG Version: 6.00 Build 0)  -->
<!DOCTYPE svg PUBLIC "-//W3C//DTD SVG 1.1//EN" "http://www.w3.org/Graphics/SVG/1.1/DTD/svg11.dtd">
<svg version="1.1" id="图层_1_copy" xmlns="http://www.w3.org/2000/svg" xmlns:xlink="http://www.w3.org/1999/xlink" x="0px"
	 y="0px" width="372.667px" height="287.611px" viewBox="0 0 372.667 287.611" enable-background="new 0 0 372.667 287.611"
	 xml:space="preserve">
<g>
	<path opacity="0.3" fill="#231F20" d="M354.371,136.473l-15.488,63.272l-9.393-2.341c-9.99-2.49-20.762-4.714-32.117-6.633
		c-0.789,3.202-1.652,6.633-2.582,10.27l-2.639,10.325l-10.01-3.66c-3.09-1.131-6.588-2.159-10.447-3.074
		c-6.967,13.076-31.125,53.476-75.924,80.061l-4.918,2.919l-4.918-2.919c-41.77-24.787-65.935-62.313-74.491-77.512
		c-6.635,1.344-10.316,2.341-10.363,2.354l-8.582,2.341l-7.655-21.188c-15.873,2.665-30.546,5.913-43.711,9.679l-10.044,2.874
		l-12.792-63.722l8.198-2.631c15.445-4.958,33.038-9.16,52.41-12.519c-2.498-15.929-4.154-33.048-4.831-50.081l-0.194-4.879
		l3.819-3.042c11.09-8.835,31.716-16.416,45.077-20.714C137.703,21.714,163.979,7,192.269,7c28.874,0,55.426,15.16,70.221,39.821
		c14.111,4.718,31.578,11.628,41.518,19.545l3.818,3.042l-0.193,4.879c-0.678,17.037-2.334,34.155-4.832,50.08
		c15.369,2.667,29.674,5.875,42.639,9.564L354.371,136.473z"/>
	<g>
		<path fill="#FFFFFF" d="M342.801,136.201c-15.174-4.319-32.379-7.995-51.129-10.892c3.307-17.91,5.529-38.263,6.33-58.404
			c-10.098-8.043-30.305-15.304-42.051-19.085c-12.189-22.704-36.158-38.181-63.682-38.181c-27.08,0-50.714,14.988-63.078,37.097
			c-10.769,3.33-34.315,11.27-45.488,20.17c0.8,20.142,3.025,40.496,6.33,58.406c-22.764,3.518-43.25,8.185-60.593,13.753
			l9.042,45.037c15.59-4.46,33.341-8.24,52.719-11.189l7.336,20.327c0,0,6.499-1.783,18.092-3.854
			c0.044,0.095,23.297,49.799,74.224,80.021c50.975-30.25,74.225-80.022,74.225-80.022s1.047-0.446,2.898-2.4
			c6.219,1.2,12.148,2.724,17.477,4.673c2.094-8.188,3.588-14.315,4.645-18.808c14.955,2.265,28.945,5.021,41.725,8.206
			L342.801,136.201z"/>
		<path fill="#FFFFFF" d="M190.853,280.611l-4.918-2.919c-41.77-24.787-65.935-62.313-74.491-77.512
			c-6.635,1.344-10.316,2.341-10.363,2.354l-8.582,2.341l-7.655-21.188c-15.873,2.665-30.546,5.913-43.711,9.679l-10.044,2.874
			l-12.792-63.722l8.198-2.631c15.445-4.958,33.038-9.16,52.41-12.519c-2.498-15.929-4.154-33.048-4.831-50.081l-0.194-4.879
			l3.819-3.042c11.09-8.835,31.716-16.416,45.077-20.714C137.703,14.714,163.979,0,192.269,0c28.874,0,55.426,15.16,70.221,39.821
			c14.111,4.718,31.578,11.628,41.518,19.545l3.818,3.042l-0.193,4.879c-0.678,17.037-2.334,34.155-4.832,50.08
			c15.369,2.667,29.674,5.875,42.639,9.564l8.932,2.542l-15.488,63.272l-9.393-2.341c-9.99-2.49-20.762-4.714-32.117-6.633
			c-0.789,3.202-1.652,6.633-2.582,10.27l-2.639,10.325l-10.01-3.66c-3.09-1.131-6.588-2.159-10.447-3.074
			c-6.967,13.076-31.125,53.476-75.924,80.061L190.853,280.611z M122.247,178.59l3.125,6.739
			c0.199,0.423,21.195,44.268,65.481,72.747c44.478-28.585,65.281-72.319,65.492-72.773l1.561-3.339l2.543-1.086
			c0.131-0.119,0.311-0.292,0.533-0.527l3.635-3.833l5.186,1.001c3.066,0.592,5.996,1.246,8.777,1.96
			c0.787-3.188,1.502-6.142,2.137-8.841l2.037-8.651l8.787,1.331c11.615,1.759,22.738,3.824,33.191,6.16l6.469-26.42
			c-12.559-3.195-26.307-5.954-41-8.224l-9.809-1.516l1.803-9.759c2.969-16.092,5.006-33.894,5.936-51.794
			c-7.502-4.634-19.918-9.875-35.133-14.772l-3.699-1.191l-1.838-3.424c-10.963-20.418-32.111-33.103-55.192-33.103
			c-22.625,0-43.571,12.324-54.666,32.163l-1.881,3.365l-3.683,1.139c-16.514,5.106-30.368,10.833-38.464,15.827
			c0.93,17.893,2.967,35.696,5.937,51.793l1.801,9.758l-9.807,1.516c-18.727,2.894-35.802,6.553-50.895,10.903l5.296,26.38
			c13.459-3.418,28.159-6.348,43.844-8.735l7.828-1.191l7.112,19.705c2.796-0.597,6.228-1.283,10.244-2L122.247,178.59z"/>
	</g>
	<g>
		<path fill="#0B1D45" d="M342.801,136.201c-15.174-4.319-32.379-7.995-51.129-10.892c3.307-17.91,5.529-38.263,6.33-58.404
			c-10.098-8.043-30.305-15.304-42.051-19.085c-12.189-22.704-36.158-38.181-63.682-38.181c-27.08,0-50.714,14.988-63.078,37.097
			c-10.769,3.33-34.315,11.27-45.488,20.17c0.8,20.142,3.025,40.496,6.33,58.406c-22.764,3.518-43.25,8.185-60.593,13.753
			l9.042,45.037c15.59-4.46,33.341-8.24,52.719-11.189l7.336,20.327c0,0,6.499-1.783,18.092-3.854
			c0.044,0.095,23.297,49.799,74.224,80.021c50.975-30.25,74.225-80.022,74.225-80.022s1.047-0.446,2.898-2.4
			c6.219,1.2,12.148,2.724,17.477,4.673c2.094-8.188,3.588-14.315,4.645-18.808c14.955,2.265,28.945,5.021,41.725,8.206
			L342.801,136.201z"/>
		<path fill="#0B1D45" d="M190.853,275.667l-2.749-1.631c-43.792-25.988-67.794-66.23-74.438-78.627
			c-8.733,1.673-13.65,3.009-13.706,3.023l-4.798,1.313l-7.519-20.826c-17.377,2.794-33.397,6.273-47.68,10.359l-5.613,1.606
			l-11.138-55.479l4.581-1.471c16.352-5.25,35.164-9.644,55.985-13.08c-2.85-16.92-4.728-35.375-5.457-53.737l-0.108-2.727
			l2.134-1.7c10.998-8.761,32.26-16.369,45.232-20.471c14-23.476,39.354-37.969,66.689-37.969c27.893,0,53.504,14.925,67.364,39.101
			c14.018,4.61,31.908,11.52,41.725,19.339l2.135,1.7l-0.107,2.727c-0.73,18.367-2.609,36.82-5.457,53.736
			c16.801,2.774,32.369,6.188,46.348,10.167l4.99,1.42l-13.498,55.146l-5.248-1.309c-11.236-2.8-23.439-5.266-36.34-7.343
			c-1.025,4.229-2.199,8.935-3.508,14.053l-1.475,5.77l-5.594-2.046c-4.053-1.481-8.75-2.792-13.994-3.905
			c-0.115,0.092-0.227,0.179-0.336,0.262c-4.297,8.587-28.061,52.714-75.671,80.968L190.853,275.667z M119.768,183.352l1.747,3.766
			c0.216,0.46,22.358,46.85,69.338,75.987c47.086-29.2,69.125-75.528,69.346-76.002l1.072-2.298l1.516-0.337
			c0.236-0.183,0.672-0.549,1.281-1.191l2.031-2.143l2.898,0.56c4.551,0.878,8.785,1.896,12.652,3.042
			c1.219-4.853,2.293-9.249,3.205-13.123l1.139-4.834l4.91,0.743c13.037,1.975,25.443,4.336,36.963,7.035l8.459-34.556
			c-13.775-3.684-29.045-6.831-45.477-9.37l-5.48-0.847l1.006-5.454c3.141-17.008,5.248-35.894,6.123-54.8
			c-10.098-6.958-27.979-13.296-38.197-16.585l-2.066-0.666l-1.027-1.914c-11.705-21.8-34.289-35.343-58.938-35.343
			c-24.163,0-46.532,13.158-58.377,34.34l-1.051,1.88l-2.059,0.636c-9.013,2.787-30.227,9.835-41.575,17.651
			c0.875,18.9,2.983,37.789,6.123,54.802l1.006,5.454l-5.48,0.847c-20.47,3.163-39.005,7.238-55.18,12.128l6.947,34.605
			c14.479-3.87,30.516-7.155,47.767-9.78l4.375-0.666l7.194,19.933c3.149-0.723,7.777-1.709,13.723-2.771L119.768,183.352z"/>
	</g>
	<g>
		<path fill="#FFFFFF" d="M246.918,45.071c0,0,36.334,10.083,51.084,21.833c-1.5,37.75-8,76.25-17.25,98
			s-15.674,24.478-15.674,24.478s-23.25,49.772-74.225,80.022c-50.976-30.25-74.225-80.022-74.225-80.022
			s-6.424-2.728-15.674-24.478s-15.75-60.25-17.25-98c14.75-11.75,51.084-21.833,51.084-21.833H246.918z"/>
	</g>
	<g>
		<g>
			<circle fill="#FFFFFF" cx="192.27" cy="81.871" r="59.476"/>
		</g>
		<g>
			<path fill="#FFFFFF" d="M192.269,154.104c-39.828,0-72.23-32.404-72.23-72.234c0-39.83,32.402-72.233,72.23-72.233
				c39.831,0,72.233,32.403,72.233,72.233C264.502,121.701,232.1,154.104,192.269,154.104z M192.269,35.149
				c-25.761,0-46.719,20.959-46.719,46.721c0,25.763,20.958,46.722,46.719,46.722c25.762,0,46.721-20.959,46.721-46.722
				C238.99,56.108,218.031,35.149,192.269,35.149z"/>
		</g>
	</g>
	<g>
		<path fill="#D50515" d="M246.92,121.029l24.584-16.875c0,0,1.217-16.683,0.592-18.245c-5.375-3.813-26.258-11.709-31.592-13.232
			l12.5-10.398c0,0,25.5,9.709,32.75,16.542c0.625,18.458-2.75,45.083-5.375,57.333s-23.125,11.25-23.125,11.25
			s-13.75-13.625-14.125-13.75s-3.875-8.659-3.875-8.659L246.92,121.029z"/>
	</g>
	<g>
		<path fill="#D50515" d="M134.788,121.029l-24.584-16.875c0,0-1.216-16.683-0.591-18.245c5.375-3.813,26.258-11.709,31.591-13.232
			l-12.5-10.398c0,0-25.5,9.709-32.75,16.542c-0.625,18.458,2.75,45.083,5.375,57.333s23.125,11.25,23.125,11.25
			s13.75-13.625,14.125-13.75s3.875-8.659,3.875-8.659L134.788,121.029z"/>
	</g>
	<g>
		<g>
			<circle fill="#FFFFFF" cx="192.27" cy="81.871" r="59.476"/>
		</g>
		<g>
			<path fill="#FFFFFF" d="M192.269,151.27c-38.265,0-69.396-31.132-69.396-69.399c0-38.267,31.131-69.398,69.396-69.398
				c38.266,0,69.399,31.132,69.399,69.398C261.668,120.138,230.535,151.27,192.269,151.27z M192.269,32.315
				c-27.324,0-49.553,22.23-49.553,49.556c0,27.326,22.229,49.557,49.553,49.557c27.325,0,49.557-22.231,49.557-49.557
				C241.826,54.545,219.594,32.315,192.269,32.315z"/>
		</g>
	</g>
	<g>
		<circle fill="#0B1D45" cx="192.27" cy="81.871" r="59.476"/>
	</g>
	<g>
		<path fill="#FFFFFF" d="M158.645,122.279c-2.809-1.625-12.108-13.25-12.108-13.25l-1.208-1.25
			c-0.875,1.875-1.771,8.224-1.771,8.224l2.979,3.894l2.667,3.382l3.388,0.625C152.591,123.904,161.454,123.904,158.645,122.279z"/>
		<path fill="#0B1D45" d="M152.591,124.755c-0.052,0-0.104-0.005-0.154-0.014l-3.388-0.625c-0.203-0.038-0.386-0.148-0.514-0.31
			l-2.667-3.382l-2.986-3.904c-0.139-0.181-0.199-0.41-0.167-0.635c0.094-0.663,0.939-6.531,1.842-8.465
			c0.118-0.253,0.354-0.433,0.63-0.479c0.278-0.046,0.558,0.046,0.752,0.248l1.208,1.25c2.612,3.259,9.732,11.838,11.922,13.105
			c0.978,0.565,1.049,1.182,0.937,1.6C159.878,123.625,159.575,124.755,152.591,124.755z M149.673,122.501l2.996,0.553
			c1.827-0.004,3.923-0.141,5.068-0.361c-3.234-2.395-10.951-11.991-11.863-13.132l-0.188-0.194
			c-0.509,1.871-1.007,4.867-1.233,6.404l2.761,3.61L149.673,122.501z"/>
	</g>
	<g>
		<path fill="#FFFFFF" d="M147.954,68.404c-0.25-0.625-4.125-6.125-6.375-6.75c-1.875,0.375-5.652,1.119-6.791,4.897v30.639
			l3.537,9.759c0,0,3.879,2.079,8.212,2.079c0.083-5.375,3.167-19.625,3.167-19.625l2.625-5.125
			C152.329,84.279,148.204,69.029,147.954,68.404z"/>
		<path fill="#0B1D45" d="M146.537,109.88c-4.495,0-8.448-2.091-8.614-2.18c-0.185-0.099-0.326-0.263-0.397-0.46l-3.537-9.759
			c-0.034-0.093-0.051-0.191-0.051-0.29V66.552c0-0.083,0.012-0.166,0.036-0.246c1.283-4.255,5.428-5.084,7.42-5.482
			c0.13-0.026,0.284-0.025,0.412,0.011c2.642,0.734,6.649,6.534,6.937,7.253c0.255,0.639,3.715,13.415,4.406,15.969
			c0.055,0.204,0.033,0.421-0.064,0.61l-2.574,5.025c-0.284,1.326-3.047,14.364-3.125,19.35
			C147.38,109.507,147.001,109.88,146.537,109.88z M139.008,106.341c0.868,0.416,3.62,1.621,6.711,1.813
			c0.339-5.872,3.032-18.373,3.153-18.929c0.016-0.072,0.041-0.142,0.074-0.208l2.475-4.833c-1.631-6.029-4.052-14.903-4.261-15.472
			c-0.34-0.733-3.791-5.435-5.638-6.18c-1.829,0.37-4.895,1.098-5.885,4.149v30.36L139.008,106.341z"/>
	</g>
	<g>
		<path fill="#FFFFFF" d="M212.078,79.904l-13.125-9l-10.25-1.875c0,0-12.875,6.875-14.125,9.125s-6.25,15.286-6.5,18.081
			s2,19.669,11.875,23.419s15.875,0.875,19,0s11.125-8.375,13.125-18.75S212.078,79.904,212.078,79.904z"/>
		<path fill="#0B1D45" d="M189.463,122.383C189.463,122.383,189.463,122.383,189.463,122.383c-3.132,0-6.433-0.651-9.812-1.934
			c-10.27-3.9-12.708-21.079-12.42-24.29c0.265-2.958,5.259-15.998,6.604-18.418c1.305-2.35,12.281-8.294,14.468-9.462
			c0.17-0.09,0.365-0.121,0.554-0.086l10.25,1.875c0.117,0.021,0.229,0.067,0.327,0.135l13.125,9
			c0.188,0.127,0.314,0.323,0.355,0.544c0.084,0.44,2.008,10.904,0,21.318c-2.053,10.645-10.147,18.404-13.731,19.408
			c-0.367,0.103-0.774,0.234-1.224,0.378C195.949,121.498,193.194,122.383,189.463,122.383z M188.843,69.919
			c-4.913,2.637-12.714,7.195-13.521,8.648c-1.191,2.144-6.156,15.058-6.396,17.743c-0.234,2.618,1.98,18.998,11.33,22.549
			c3.186,1.209,6.283,1.823,9.207,1.823h0.001c3.465,0,6.071-0.838,7.976-1.45c0.473-0.152,0.9-0.289,1.285-0.397
			c2.771-0.776,10.588-8.076,12.52-18.092c1.748-9.074,0.369-18.454,0.059-20.34l-12.68-8.695L188.843,69.919z"/>
	</g>
	<g>
		<path fill="#FFFFFF" d="M235.871,64.154c-2.584-2.833-17.75-5.25-17.75-5.25l-17.75,2.75l-1.417,6.25l4.092,13.672
			c0,0,6.408,22.995,8.158,23.912s17.25,0.833,22.834-0.833s5.5-10.333,5.5-10.333s3.141-9.26,2.986-10.88
			C242.371,81.821,238.455,66.988,235.871,64.154z"/>
		<path fill="#0B1D45" d="M218.643,106.921L218.643,106.921c-2.441,0-6.703-0.088-7.834-0.68
			c-1.807-0.946-6.152-15.716-8.583-24.437l-4.087-13.657c-0.042-0.14-0.047-0.289-0.015-0.432l1.417-6.25
			c0.077-0.34,0.354-0.599,0.699-0.652l17.75-2.75c0.088-0.014,0.178-0.012,0.264,0c1.582,0.252,15.539,2.549,18.244,5.517
			c2.855,3.131,6.738,18.362,6.873,19.78c0.158,1.671-2.361,9.26-2.984,11.102c-0.016,1.245-0.336,9.284-6.107,11.007
			C230.689,106.541,223.613,106.921,218.643,106.921z M199.833,67.875l4.027,13.458c2.994,10.742,6.73,22.44,7.81,23.449
			c0.311,0.148,2.502,0.438,6.973,0.438c5.238,0,11.955-0.427,15.15-1.381c4.914-1.466,4.895-9.43,4.893-9.51
			c0-0.096,0.016-0.191,0.045-0.281c1.516-4.467,3.031-9.626,2.947-10.527c-0.135-1.423-4.039-16.166-6.436-18.793
			c-1.734-1.903-11.139-4-17.123-4.962l-17.047,2.641L199.833,67.875z"/>
	</g>
	<g>
		<path fill="#FFFFFF" d="M180.454,52.571l-18.245-3.013c-1.819-1.05-5.755-0.653-10.505,6.18s-5.167,11.25-5.167,15.417
			s1.083,14.75,3.167,18.25s17.25,8.417,19.333,6.333s12.5-17.833,14.75-18.75s2.417-12.417,2.417-12.417L180.454,52.571z"/>
		<path fill="#0B1D45" d="M167.052,97.085C167.052,97.085,167.051,97.085,167.052,97.085c-4.786,0-16.051-3.839-18.079-7.246
			c-2.309-3.878-3.286-14.938-3.286-18.685c0-4.175,0.411-8.841,5.319-15.902c4.224-6.076,7.727-6.983,9.44-6.983
			c0.745,0,1.448,0.163,2.044,0.473l18.103,2.99c0.274,0.045,0.508,0.221,0.628,0.471l5.75,12c0.057,0.119,0.086,0.249,0.084,0.38
			c-0.053,3.627-0.445,12.173-2.946,13.192c-1.186,0.491-6.306,7.581-9.366,11.817c-2.386,3.304-4.271,5.914-5.104,6.746
			C169.136,96.841,168.29,97.085,167.052,97.085z M160.445,49.97c-1.381,0-4.261,0.813-8.043,6.253
			c-4.631,6.662-5.014,10.864-5.014,14.931c0,4.476,1.157,14.64,3.047,17.815c1.463,2.458,11.712,6.415,16.617,6.416h0
			c1.123,0,1.374-0.238,1.384-0.249c0.736-0.736,2.772-3.555,4.928-6.539c5.119-7.087,8.587-11.779,10.103-12.397
			c0.91-0.392,1.782-5.712,1.884-11.443l-5.472-11.419l-17.808-2.941c-0.101-0.017-0.198-0.051-0.287-0.103
			C161.416,50.082,160.953,49.97,160.445,49.97z"/>
	</g>
	<g>
		<path fill="#FFFFFF" d="M200.871,34.404c0,0-2.272-3.787-2.595-5.019s-6.947-5.722-13.322-5.565s-19,4.75-21.917,7.75
			s-4.75,11.75-4.333,14.917s12.083,6,19.083,9.917s16.417-0.5,16.417-0.5l19.167-13.583L200.871,34.404z"/>
		<path fill="#0B1D45" d="M184.581,58.875c0,0-0.001,0-0.001,0c-2.733,0-5.158-0.582-7.207-1.728
			c-2.605-1.458-5.859-2.758-9.005-4.017c-6.313-2.524-10.198-4.19-10.506-6.531c-0.428-3.251,1.375-12.338,4.567-15.621
			s16.022-7.848,22.505-8.007l0.35-0.004c6.396,0,13.362,4.466,13.816,6.204c0.204,0.779,1.537,3.174,2.398,4.624l12.33,7.808
			c0.238,0.151,0.387,0.413,0.395,0.696c0.008,0.283-0.127,0.552-0.357,0.716l-19.167,13.583c-0.042,0.029-0.085,0.055-0.131,0.076
			C194.374,56.764,189.814,58.875,184.581,58.875z M185.282,24.667l-0.308,0.004c-6.35,0.157-18.69,4.78-21.328,7.493
			c-2.771,2.849-4.472,11.389-4.1,14.213c0.193,1.472,5.327,3.525,9.452,5.174c3.197,1.278,6.502,2.6,9.204,4.111
			c1.792,1.003,3.938,1.512,6.377,1.512c0,0,0.001,0,0.001,0c4.536,0,8.638-1.76,9.197-2.01l18.066-12.803l-11.428-7.238
			c-0.112-0.071-0.206-0.167-0.274-0.281c-0.238-0.398-2.345-3.929-2.688-5.241C197.013,28.678,191.196,24.667,185.282,24.667z"/>
	</g>
	<g>
		<path fill="#FFFFFF" d="M238.037,46.321c-0.461-2.986-25.666-18.917-27.334-19.167c-1.666-0.25-11.583-0.75-12.5,2.417
			s-1.583,15.5-1.583,15.5l0.75,7.25l10.75,9.917l5.666,1.233l22.084,0.683C235.871,64.154,238.5,49.308,238.037,46.321z"/>
		<path fill="#0B1D45" d="M235.871,65.005c-0.01,0-0.018,0-0.027,0l-22.084-0.683c-0.051-0.002-0.104-0.008-0.154-0.019
			l-5.666-1.233c-0.148-0.032-0.285-0.104-0.395-0.206l-10.75-9.917c-0.152-0.14-0.248-0.332-0.27-0.538l-0.75-7.25
			c-0.005-0.044-0.006-0.089-0.004-0.133c0.028-0.507,0.683-12.468,1.616-15.691c0.618-2.136,3.874-3.219,9.677-3.219
			c1.605,0,3.109,0.1,3.766,0.198c1.645,0.247,27.471,16.148,28.049,19.878c0.469,3.038-1.898,16.577-2.172,18.111
			C236.637,64.71,236.281,65.005,235.871,65.005z M213.891,62.624l21.27,0.658c0.787-4.547,2.379-14.622,2.037-16.831
			c-0.727-2.534-24.32-17.835-26.652-18.462c-0.43-0.063-1.791-0.173-3.48-0.173c-4.537,0-7.694,0.782-8.044,1.991
			c-0.846,2.922-1.492,14.267-1.547,15.244l0.71,6.863l10.344,9.542L213.891,62.624z"/>
	</g>
	<g>
		<path fill="#FFFFFF" d="M247.037,78.821c0,0-3.832,2.666-6.166,7.333s-8.75,16.25-11,19.917s-2.334,17.667-2.668,18
			c-0.332,0.333,3.666,1,4.084,0.917c0.416-0.083,8.75-6.99,8.75-6.99l9.025-18.414l0.809-15.513L247.037,78.821z"/>
		<path fill="#0B1D45" d="M231.18,125.845L231.18,125.845c-0.043,0-4.318-0.278-4.777-1.386c-0.09-0.217-0.076-0.486,0.018-0.712
			c0.059-0.311,0.137-1.543,0.211-2.737c0.383-6.083,0.922-12.789,2.516-15.384c2.16-3.522,8.529-14.985,10.963-19.852
			c2.404-4.806,6.277-7.537,6.441-7.651c0.199-0.138,0.445-0.185,0.684-0.129c0.234,0.056,0.436,0.21,0.551,0.423l2.834,5.25
			c0.074,0.137,0.109,0.292,0.102,0.448l-0.809,15.513c-0.006,0.114-0.035,0.227-0.086,0.33l-9.025,18.414
			c-0.053,0.108-0.129,0.204-0.221,0.28c-8.5,7.043-8.877,7.119-9.127,7.169C231.391,125.834,231.299,125.845,231.18,125.845z
			 M228.148,123.632c0.787,0.21,2.291,0.472,2.906,0.508c0.865-0.59,4.787-3.771,8.299-6.681l8.869-18.094l0.787-15.101
			l-2.242-4.151c-1.193,1.003-3.545,3.237-5.137,6.421c-2.268,4.537-8.664,16.115-11.035,19.981
			c-1.504,2.452-2.02,10.658-2.268,14.601C228.25,122.366,228.203,123.136,228.148,123.632z"/>
	</g>
	<g>
		<polygon fill="#0B1D45" points="196.621,45.071 177.787,56.404 181.787,79.238 202.871,81.871 213.787,63.471 		"/>
		<path fill="#0B1D45" d="M202.871,82.722c-0.035,0-0.07-0.002-0.105-0.007l-21.083-2.633c-0.371-0.046-0.667-0.329-0.732-0.697
			l-4-22.833c-0.061-0.347,0.098-0.694,0.399-0.875l18.833-11.333c0.343-0.207,0.786-0.146,1.061,0.148l17.166,18.4
			c0.258,0.276,0.303,0.689,0.109,1.014l-10.916,18.4C203.448,82.565,203.168,82.722,202.871,82.722z M182.516,78.472l19.907,2.486
			l10.307-17.373l-16.261-17.43l-17.744,10.677L182.516,78.472z"/>
	</g>
	<g>
		<path fill="#0B1D45" d="M192.269,144.467c-34.514,0-62.593-28.081-62.593-62.596c0-34.515,28.079-62.595,62.593-62.595
			c34.516,0,62.596,28.08,62.596,62.595C254.865,116.386,226.785,144.467,192.269,144.467z M192.269,25.512
			c-31.075,0-56.356,25.282-56.356,56.359c0,31.077,25.281,56.36,56.356,56.36c31.077,0,56.36-25.283,56.36-56.36
			C248.629,50.794,223.346,25.512,192.269,25.512z"/>
	</g>
	<g>
		<path fill="#FFFFFF" d="M178.954,147.404l79,6l34.5,8.75c0,0-1.25,7-7,29.5c-30.75-11.25-81.25-8.582-94.6-8.582
			c-55.351,0-92.316,10.166-92.316,10.166l-8-22.166l30.167-22l70.149,3.333L178.954,147.404z"/>
	</g>
	<g>
		<path fill="#FFFFFF" d="M190.854,165.778c53.562,0,102.681,5.733,140.968,15.274l10.979-44.852
			c-39.645-11.283-93.111-18.203-151.947-18.203c-63.66,0-121.033,8.102-161.414,21.065l9.042,45.037
			C78.169,172.746,131.81,165.778,190.854,165.778z"/>
	</g>
	<g>
		<path fill="#0B1D45" d="M103.898,173.827l0.216,1.467l5.52-0.814l1.796,1.253l0.657,4.455l-1.358,1.718l-8.674,1.279l-0.438-2.97
			l7.097-1.047l-0.219-1.485l-5.52,0.814l-1.796-1.253l-0.654-4.437l1.358-1.718l8.674-1.279l0.438,2.971L103.898,173.827z"/>
	</g>
	<g>
		<path fill="#0B1D45" d="M117.558,180.995l-1.761-1.303l-1.063-8.925l1.405-1.68l7.103-0.846l1.761,1.302l1.063,8.926l-1.405,1.679
			L117.558,180.995z M118.077,171.881l0.708,5.943l3.937-0.469l-0.708-5.943L118.077,171.881z"/>
	</g>
	<g>
		<path fill="#0B1D45" d="M131.502,179.422l-1.726-1.348l-0.831-8.95l1.449-1.642l7.143-0.663l1.727,1.347l0.277,2.99l-3.175,0.295
			l-0.139-1.495l-3.968,0.368l0.553,5.961l3.968-0.369l-0.139-1.494l3.175-0.295l0.277,2.983l-1.448,1.648L131.502,179.422z"/>
	</g>
	<g>
		<path fill="#0B1D45" d="M145.511,178.205l-1.692-1.39l-0.61-8.968l1.488-1.605l7.157-0.487l1.692,1.39l0.204,2.996l-3.181,0.216
			l-0.102-1.497l-3.976,0.271l0.406,5.972l3.977-0.271l-0.102-1.498l3.181-0.216l0.204,2.989l-1.488,1.612L145.511,178.205z"/>
	</g>
	<g>
		<path fill="#0B1D45" d="M158.124,177.394l-0.53-11.979l10.332-0.457l0.132,2.999l-7.146,0.316l0.066,1.5l7.146-0.316l0.133,3
			l-7.146,0.316l0.065,1.48l7.146-0.316l0.133,3L158.124,177.394z"/>
	</g>
	<g>
		<path fill="#0B1D45" d="M175.412,172.24l0.096,4.503l-3.188,0.067l-0.255-11.988l8.746-0.187l1.625,1.468l0.096,4.483
			l-1.562,1.535l-1.185,0.024l2.875,4.444l-3.188,0.067l-2.875-4.443L175.412,172.24z M175.316,167.756l0.032,1.482l3.964-0.085
			l-0.032-1.481L175.316,167.756z"/>
	</g>
	<g>
		<path fill="#0B1D45" d="M197.214,164.598l-0.114,8.988l7.173,0.091l-0.038,3.002l-10.361-0.131l0.152-11.99L197.214,164.598z"/>
	</g>
	<g>
		<path fill="#0B1D45" d="M207.725,176.763l0.424-11.984l10.334,0.365l-0.105,3l-7.148-0.252l-0.053,1.501l7.148,0.252l-0.105,3.001
			l-7.148-0.253l-0.053,1.481l7.148,0.252l-0.105,3.001L207.725,176.763z"/>
	</g>
	<g>
		<path fill="#0B1D45" d="M226.918,169.716l-3.068,7.688l-3.08-0.179l4.672-11.721l3.428,0.199l3.285,12.183l-3.08-0.179
			L226.918,169.716z"/>
	</g>
	<g>
		<path fill="#0B1D45" d="M236.67,178.241l-1.467-1.626l0.732-8.959l1.711-1.366l7.131,0.583l1.467,1.626l-0.123,1.496l-7.129-0.583
			l-0.488,5.966l3.951,0.323l0.123-1.496l-2.363-0.193l0.244-2.992l3.953,0.323l1.467,1.626l-0.367,4.488l-1.711,1.367
			L236.67,178.241z"/>
	</g>
	<g>
		<path fill="#0B1D45" d="M253.684,167.731l-0.959,8.937l3.941,0.424l0.961-8.938l3.17,0.341l-1.121,10.43l-1.746,1.322
			l-7.111-0.764l-1.426-1.663l1.121-10.43L253.684,167.731z"/>
	</g>
	<g>
		<path fill="#0B1D45" d="M263.34,180.88l1.605-11.883l10.248,1.385l-0.402,2.976l-7.088-0.958l-0.201,1.487l7.088,0.958
			l-0.402,2.976l-7.088-0.958l-0.199,1.469l7.09,0.958l-0.402,2.976L263.34,180.88z"/>
	</g>
	<g>
		<path fill="#0B1D45" d="M37.396,144.316l6.893-1.691l16.704,16.841l-4.846-19.75l7.52-1.845l7.154,29.157l-8.773,2.152
			l-14.066-14.212l4.088,16.661l-7.52,1.845L37.396,144.316z"/>
	</g>
	<g>
		<path fill="#0B1D45" d="M78.597,165.617l-4.452-3.048l-3.813-22.18l3.179-4.36l17.121-2.944l4.453,3.048l3.813,22.179l-3.179,4.36
			L78.597,165.617z M78.599,142.782l2.54,14.771l9.49-1.632l-2.54-14.771L78.599,142.782z"/>
	</g>
	<g>
		<path fill="#0B1D45" d="M106.833,130.841l8.254,18.156l3.875-19.564l7.691-0.893l-6.151,30.938l-8.283,0.962l-13.077-28.705
			L106.833,130.841z"/>
	</g>
	<g>
		<path fill="#0B1D45" d="M139.466,137.968l-4.884,20.077l-7.475,0.554l7.439-30.606l8.315-0.616l11.866,29.177l-7.475,0.554
			L139.466,137.968z"/>
	</g>
	<g>
		<path fill="#0B1D45" d="M178.069,133.376l0.04,3.71l13.549-0.146l3.912,3.717l0.121,11.276l-3.832,3.8l-21.292,0.229l-0.081-7.518
			l17.421-0.187l-0.041-3.759l-13.549,0.146l-3.912-3.717l-0.121-11.228l3.831-3.8l21.291-0.228l0.082,7.517L178.069,133.376z"/>
	</g>
	<g>
		<path fill="#0B1D45" d="M203.848,155.848l-3.749-3.88l0.72-22.493l3.99-3.633l17.414,0.558l3.748,3.881l-0.24,7.514l-7.738-0.248
			l0.119-3.757l-9.674-0.31l-0.479,14.979l9.674,0.311l0.119-3.757l7.74,0.248l-0.24,7.497l-3.99,3.649L203.848,155.848z"/>
	</g>
	<g>
		<path fill="#0B1D45" d="M233.176,157.036l-3.572-4.045l1.729-22.438l4.148-3.451l17.32,1.333l3.572,4.045l-1.729,22.438
			l-4.148,3.45L233.176,157.036z M238.762,134.895l-1.15,14.943l9.602,0.739l1.15-14.943L238.762,134.895z"/>
	</g>
	<g>
		<path fill="#0B1D45" d="M270.271,137.868l-8.963-1.132l0.941-7.458l24.918,3.146l-0.941,7.458l-8.322-1.051l-2.82,22.327
			l-7.633-0.964L270.271,137.868z"/>
	</g>
	<g>
		<path fill="#0B1D45" d="M300.221,134.645l-4.92,29.616l-7.639-1.269l4.92-29.616L300.221,134.645z"/>
	</g>
	<g>
		<path fill="#0B1D45" d="M314.713,147.928l-10.273,17.928l-7.334-1.547l15.654-27.332l8.16,1.721l3.285,31.326l-7.332-1.547
			L314.713,147.928z"/>
	</g>
	<g>
		<polygon fill="#0B1D45" points="190.854,184.701 195.618,199.363 211.035,199.363 198.562,208.426 203.327,223.088 
			190.854,214.026 178.38,223.088 183.144,208.426 170.672,199.363 186.09,199.363 		"/>
	</g>
	<g>
		<path fill="#D50515" d="M244.986,184.491c-19.598,31.786-54.133,56.913-54.133,56.913s-33.121-23.428-52.718-55.214l-14.014,3.132
			c0,0,22.049,39.915,66.732,67.915c44.684-28,68.149-69.614,68.149-69.614L244.986,184.491z"/>
	</g>
</g>
</svg>
